<?xml version="1.0" encoding="UTF-8"?>
<svg xmlns="http://www.w3.org/2000/svg" width="1536" height="1024" viewBox="0 0 1536 1024" preserveAspectRatio="xMidYMid meet">
<defs>
  <filter id="blueGlow" x="-60%" y="-60%" width="220%" height="220%">
    <feGaussianBlur stdDeviation="10" result="b"/>
    <feMerge><feMergeNode in="b"/><feMergeNode in="SourceGraphic"/></feMerge>
  </filter>
  <filter id="cellGlow" x="-60%" y="-60%" width="220%" height="220%">
    <feGaussianBlur stdDeviation="8" result="b"/>
    <feMerge><feMergeNode in="b"/><feMergeNode in="SourceGraphic"/></feMerge>
  </filter>
  <style><![CDATA[
    #neon-outline {stroke-dasharray:320 190;animation:neonRun 2.6s linear infinite,neonPulse 1.1s ease-in-out infinite alternate}
    @keyframes neonRun{to{stroke-dashoffset:-1020}}
    @keyframes neonPulse{from{opacity:.45}to{opacity:1}}
    #dpad{transform-box:fill-box;transform-origin:center;animation:dpadSpin 4s linear infinite}
    @keyframes dpadSpin{to{transform:rotate(360deg)}}
    .face{transform-box:fill-box;transform-origin:center}
    #button-top{animation:press1 4s infinite}#button-right{animation:press2 4s infinite}#button-bottom{animation:press3 4s infinite}#button-left{animation:press4 4s infinite}
    @keyframes press1{0%,18%,100%{fill:#111;transform:scale(1)}7%{fill:#4F8DFF;transform:scale(.86)}}
    @keyframes press2{0%,24%,43%,100%{fill:#111;transform:scale(1)}32%{fill:#4F8DFF;transform:scale(.86)}}
    @keyframes press3{0%,49%,68%,100%{fill:#111;transform:scale(1)}57%{fill:#4F8DFF;transform:scale(.86)}}
    @keyframes press4{0%,74%,93%,100%{fill:#111;transform:scale(1)}82%{fill:#4F8DFF;transform:scale(.86)}}
  ]]></style>
</defs>
<g transform="translate(0,1024) scale(.1,-.1)">
<path d="M7194 9175 c-152 -33 -284 -148 -340 -295 -12 -32 -19 -90 -23 -200 l-6 -155 -190 -6 c-155 -5 -202 -10 -255 -27 -146 -48 -293 -168 -359 -292 -19 -36 -35 -66 -36 -68 -2 -2 -31 13 -66 32 -140 77 -277 115 -448 125 l-115 6 -22 106 c-65 310 -216 497 -442 545 -79 16 -638 19 -967 4 -226 -10 -310 -26 -451 -87 -220 -95 -414 -286 -487 -479 -52 -135 -59 -180 -64 -385 l-6 -197 -50 -38 c-80 -61 -267 -251 -334 -339 -186 -247 -293 -500 -388 -915 -46 -203 -235 -958 -380 -1515 -212 -817 -360 -1431 -415 -1720 -60 -318 -74 -462 -74 -800 -1 -340 4 -387 65 -571 101 -310 325 -569 616 -714 200 -99 384 -140 629 -140 357 0 685 125 979 373 275 232 438 451 842 1136 294 498 344 572 447 669 114 107 242 171 392 197 92 16 429 21 601 9 l90 -7 6 -71 c20 -254 207 -498 440 -575 123 -41 161 -42 1337 -39 l1135 3 80 23 c213 60 393 230 456 432 11 36 25 102 31 146 l11 81 75 7 c120 10 503 7 589 -5 214 -29 398 -145 534 -335 31 -44 97 -149 146 -234 49 -85 143 -247 209 -360 420 -726 674 -1030 1040 -1246 237 -139 478 -204 760 -204 225 0 404 40 599 135 242 117 452 324 569 562 118 239 156 482 136 868 -11 214 -31 415 -56 560 -45 259 -206 935 -387 1625 -86 327 -344 1339 -373 1465 -124 537 -143 604 -220 779 -57 130 -133 263 -207 361 -71 94 -235 264 -328 341 l-66 54 -6 172 c-3 99 -13 207 -22 252 -58 276 -227 488 -493 617 -139 68 -260 98 -447 109 -200 13 -912 12 -999 0 -191 -28 -354 -193 -429 -435 -13 -44 -30 -113 -37 -152 l-13 -73 -68 0 c-164 0 -334 -42 -477 -117 -47 -25 -88 -41 -90 -35 -8 24 -80 135 -115 177 -74 87 -228 173 -348 194 -36 6 -133 11 -216 11 l-151 0 -7 65 c-3 35 -4 68 -2 72 3 4 1 50 -3 102 -7 78 -14 106 -45 167 -62 127 -175 215 -316 249 -87 20 -881 21 -975 0z m933 -317 c18 -10 45 -34 60 -55 l28 -36 3 -269 3 -268 272 0 c150 0 299 -4 331 -10 126 -20 225 -95 280 -210 l31 -65 0 -2315 0 -2315 -32 -67 c-40 -85 -101 -146 -189 -189 l-69 -34 -1140 -3 c-1289 -3 -1214 -8 -1325 74 -67 49 -111 108 -137 185 -17 52 -18 151 -18 2354 l0 2300 24 60 c33 83 124 173 206 205 57 22 76 24 370 29 l310 6 5 265 c5 275 7 285 52 327 55 52 62 53 498 50 364 -2 408 -4 437 -19z m-3277 -228 c86 -24 159 -131 182 -267 7 -40 10 -74 7 -77 -2 -3 -156 -10 -341 -16 -720 -23 -1003 -72 -1371 -239 -38 -17 -71 -31 -73 -31 -12 0 -1 142 16 200 68 229 298 396 595 433 70 9 952 6 985 -3z m6759 -14 c89 -23 220 -86 289 -139 105 -82 170 -179 202 -302 19 -73 27 -175 14 -175 -3 0 -51 20 -107 44 -369 159 -641 204 -1361 226 -175 5 -321 12 -324 14 -9 10 20 143 43 194 37 81 60 108 118 137 l52 26 505 -4 c432 -3 514 -6 569 -21z m-6015 -656 c89 -22 184 -70 274 -137 l62 -46 -2 -2011 -3 -2011 -365 -6 c-227 -4 -382 -11 -410 -18 -155 -40 -299 -107 -405 -186 -90 -68 -219 -200 -285 -290 -57 -78 -200 -317 -315 -525 -379 -683 -578 -957 -835 -1147 -405 -300 -936 -321 -1330 -53 -186 127 -321 357 -372 635 -17 93 -17 493 1 650 22 207 58 416 115 672 63 281 235 977 356 1438 124 471 344 1350 386 1535 94 425 238 709 477 942 306 297 726 473 1272 532 118 13 312 22 795 39 41 2 172 4 291 5 186 2 226 -1 293 -18z m4861 10 c752 -21 1046 -63 1375 -195 252 -101 431 -217 610 -395 128 -127 212 -243 284 -393 79 -165 112 -275 206 -672 53 -226 252 -1017 360 -1435 398 -1539 462 -1854 476 -2340 9 -301 -17 -472 -101 -655 -204 -447 -744 -655 -1265 -485 -215 70 -446 230 -606 421 -150 178 -277 378 -551 864 -303 540 -349 610 -473 736 -140 141 -326 251 -510 300 -79 21 -112 23 -455 28 l-370 6 -3 2007 -2 2008 56 43 c110 87 223 141 334 160 46 8 283 7 635 -3z" fill="none" stroke="#111827" stroke-width="105" stroke-linecap="round" stroke-linejoin="round"/>
<path id="neon-outline" d="M7194 9175 c-152 -33 -284 -148 -340 -295 -12 -32 -19 -90 -23 -200 l-6 -155 -190 -6 c-155 -5 -202 -10 -255 -27 -146 -48 -293 -168 -359 -292 -19 -36 -35 -66 -36 -68 -2 -2 -31 13 -66 32 -140 77 -277 115 -448 125 l-115 6 -22 106 c-65 310 -216 497 -442 545 -79 16 -638 19 -967 4 -226 -10 -310 -26 -451 -87 -220 -95 -414 -286 -487 -479 -52 -135 -59 -180 -64 -385 l-6 -197 -50 -38 c-80 -61 -267 -251 -334 -339 -186 -247 -293 -500 -388 -915 -46 -203 -235 -958 -380 -1515 -212 -817 -360 -1431 -415 -1720 -60 -318 -74 -462 -74 -800 -1 -340 4 -387 65 -571 101 -310 325 -569 616 -714 200 -99 384 -140 629 -140 357 0 685 125 979 373 275 232 438 451 842 1136 294 498 344 572 447 669 114 107 242 171 392 197 92 16 429 21 601 9 l90 -7 6 -71 c20 -254 207 -498 440 -575 123 -41 161 -42 1337 -39 l1135 3 80 23 c213 60 393 230 456 432 11 36 25 102 31 146 l11 81 75 7 c120 10 503 7 589 -5 214 -29 398 -145 534 -335 31 -44 97 -149 146 -234 49 -85 143 -247 209 -360 420 -726 674 -1030 1040 -1246 237 -139 478 -204 760 -204 225 0 404 40 599 135 242 117 452 324 569 562 118 239 156 482 136 868 -11 214 -31 415 -56 560 -45 259 -206 935 -387 1625 -86 327 -344 1339 -373 1465 -124 537 -143 604 -220 779 -57 130 -133 263 -207 361 -71 94 -235 264 -328 341 l-66 54 -6 172 c-3 99 -13 207 -22 252 -58 276 -227 488 -493 617 -139 68 -260 98 -447 109 -200 13 -912 12 -999 0 -191 -28 -354 -193 -429 -435 -13 -44 -30 -113 -37 -152 l-13 -73 -68 0 c-164 0 -334 -42 -477 -117 -47 -25 -88 -41 -90 -35 -8 24 -80 135 -115 177 -74 87 -228 173 -348 194 -36 6 -133 11 -216 11 l-151 0 -7 65 c-3 35 -4 68 -2 72 3 4 1 50 -3 102 -7 78 -14 106 -45 167 -62 127 -175 215 -316 249 -87 20 -881 21 -975 0z m933 -317 c18 -10 45 -34 60 -55 l28 -36 3 -269 3 -268 272 0 c150 0 299 -4 331 -10 126 -20 225 -95 280 -210 l31 -65 0 -2315 0 -2315 -32 -67 c-40 -85 -101 -146 -189 -189 l-69 -34 -1140 -3 c-1289 -3 -1214 -8 -1325 74 -67 49 -111 108 -137 185 -17 52 -18 151 -18 2354 l0 2300 24 60 c33 83 124 173 206 205 57 22 76 24 370 29 l310 6 5 265 c5 275 7 285 52 327 55 52 62 53 498 50 364 -2 408 -4 437 -19z m-3277 -228 c86 -24 159 -131 182 -267 7 -40 10 -74 7 -77 -2 -3 -156 -10 -341 -16 -720 -23 -1003 -72 -1371 -239 -38 -17 -71 -31 -73 -31 -12 0 -1 142 16 200 68 229 298 396 595 433 70 9 952 6 985 -3z m6759 -14 c89 -23 220 -86 289 -139 105 -82 170 -179 202 -302 19 -73 27 -175 14 -175 -3 0 -51 20 -107 44 -369 159 -641 204 -1361 226 -175 5 -321 12 -324 14 -9 10 20 143 43 194 37 81 60 108 118 137 l52 26 505 -4 c432 -3 514 -6 569 -21z m-6015 -656 c89 -22 184 -70 274 -137 l62 -46 -2 -2011 -3 -2011 -365 -6 c-227 -4 -382 -11 -410 -18 -155 -40 -299 -107 -405 -186 -90 -68 -219 -200 -285 -290 -57 -78 -200 -317 -315 -525 -379 -683 -578 -957 -835 -1147 -405 -300 -936 -321 -1330 -53 -186 127 -321 357 -372 635 -17 93 -17 493 1 650 22 207 58 416 115 672 63 281 235 977 356 1438 124 471 344 1350 386 1535 94 425 238 709 477 942 306 297 726 473 1272 532 118 13 312 22 795 39 41 2 172 4 291 5 186 2 226 -1 293 -18z m4861 10 c752 -21 1046 -63 1375 -195 252 -101 431 -217 610 -395 128 -127 212 -243 284 -393 79 -165 112 -275 206 -672 53 -226 252 -1017 360 -1435 398 -1539 462 -1854 476 -2340 9 -301 -17 -472 -101 -655 -204 -447 -744 -655 -1265 -485 -215 70 -446 230 -606 421 -150 178 -277 378 -551 864 -303 540 -349 610 -473 736 -140 141 -326 251 -510 300 -79 21 -112 23 -455 28 l-370 6 -3 2007 -2 2008 56 43 c110 87 223 141 334 160 46 8 283 7 635 -3z" fill="none" stroke="#4F9DFF" stroke-width="38" stroke-linecap="round" stroke-linejoin="round" filter="url(#blueGlow)"/>
<path d="M6793 7919 c-143 -11 -235 -75 -285 -198 l-23 -56 0 -2075 0 -2075 26 -56 c32 -68 83 -121 152 -156 47 -24 67 -27 192 -32 77 -3 507 -4 955 -1 l815 5 67 33 c111 54 169 139 188 272 14 100 4 3975 -11 4072 -19 122 -98 217 -212 255 -48 16 -122 17 -917 18 -476 0 -902 -3 -947 -6z m1776 -264 c16 -8 33 -27 40 -42 7 -19 12 -139 14 -368 2 -381 2 -381 -68 -411 -51 -21 -1699 -21 -1750 0 -70 30 -70 30 -68 411 2 187 5 350 8 363 3 12 20 31 38 42 31 19 55 20 895 20 735 0 867 -2 891 -15z m-5 -1097 c60 -27 61 -33 64 -388 3 -356 0 -386 -51 -424 -28 -21 -33 -21 -890 -24 -856 -3 -862 -3 -895 18 -61 38 -63 54 -60 423 3 360 4 362 60 394 32 17 1734 19 1772 1z m-15 -1094 c77 -31 76 -25 76 -416 0 -336 -1 -347 -21 -375 -11 -15 -36 -33 -55 -40 -25 -9 -250 -12 -874 -12 -939 -1 -890 -5 -928 69 -16 32 -17 66 -15 372 3 324 4 338 24 365 11 15 36 33 55 40 25 9 248 12 866 12 737 1 837 -1 872 -15z m0 -1097 c19 -7 44 -25 55 -40 20 -27 21 -41 24 -365 3 -372 1 -380 -61 -426 -28 -21 -34 -21 -890 -21 -813 0 -863 1 -888 18 -51 35 -54 55 -54 412 0 403 1 407 110 426 22 3 407 7 855 7 607 1 824 -2 849 -11z" fill="none" stroke="#101820" stroke-width="58" stroke-linejoin="round"/>
<g id="battery-charge" filter="url(#cellGlow)"><g opacity="0" fill="#FF3B30"><rect x="6755" y="3585" width="1845" height="740" rx="55"/><animate attributeName="opacity" values="0;1;1;0;0;0;0;0;0" keyTimes="0;.03;.20;.23;.25;.47;.50;.72;1" dur="5.2s" repeatCount="indefinite"/></g><g opacity="0" fill="#FF9500"><rect x="6755" y="3585" width="1845" height="740" rx="55"/><rect x="6755" y="4680" width="1845" height="740" rx="55"/><animate attributeName="opacity" values="0;0;0;1;1;0;0;0;0" keyTimes="0;.20;.22;.25;.45;.48;.50;.72;1" dur="5.2s" repeatCount="indefinite"/></g><g opacity="0" fill="#A8E063"><rect x="6755" y="3585" width="1845" height="740" rx="55"/><rect x="6755" y="4680" width="1845" height="740" rx="55"/><rect x="6755" y="5775" width="1845" height="740" rx="55"/><animate attributeName="opacity" values="0;0;0;0;0;1;1;0;0" keyTimes="0;.22;.45;.47;.49;.52;.70;.73;1" dur="5.2s" repeatCount="indefinite"/></g><g opacity="0" fill="#34C759"><rect x="6755" y="3585" width="1845" height="740" rx="55"/><rect x="6755" y="4680" width="1845" height="740" rx="55"/><rect x="6755" y="5775" width="1845" height="740" rx="55"/><rect x="6755" y="6870" width="1845" height="740" rx="55"/><animate attributeName="opacity" values="0;0;0;0;0;0;1;1;0" keyTimes="0;.25;.48;.50;.70;.72;.75;.94;1" dur="5.2s" repeatCount="indefinite"/></g></g>
<path id="dpad" d="M3910 6961 c-36 -4 -82 -15 -102 -24 -53 -22 -125 -93 -156 -152 -27 -50 -27 -51 -32 -325 l-5 -275 -255 -5 -255 -5 -62 -29 c-65 -30 -127 -87 -160 -147 -16 -31 -18 -63 -18 -384 l0 -350 29 -53 c37 -65 83 -107 156 -140 54 -25 59 -26 265 -24 116 1 231 0 256 -3 l46 -6 2 -236 c3 -258 8 -291 63 -370 36 -53 83 -89 148 -114 45 -17 78 -19 338 -19 328 0 349 4 427 72 109 96 125 153 125 445 l0 223 103 2 c56 1 170 2 252 2 140 1 154 3 205 27 77 36 124 80 157 147 l28 57 3 329 3 329 -31 63 c-35 72 -81 116 -160 153 -54 26 -60 26 -307 29 l-252 4 -3 266 -3 267 -28 57 c-36 73 -96 134 -162 164 -51 24 -64 25 -302 29 -136 2 -277 0 -313 -4z m500 -291 c19 -19 20 -33 20 -312 0 -171 4 -309 10 -330 14 -48 55 -97 97 -114 25 -11 99 -14 317 -14 264 0 285 -1 307 -19 24 -19 24 -21 27 -260 l3 -241 -25 -25 -25 -25 -287 0 c-272 0 -290 -1 -331 -21 -31 -15 -50 -33 -65 -63 -20 -38 -21 -59 -25 -321 -2 -154 -6 -290 -9 -303 -9 -44 -54 -52 -273 -50 -194 3 -201 4 -223 26 -23 22 -23 27 -28 325 -5 299 -5 302 -29 336 -48 66 -71 71 -394 71 l-288 0 -24 25 -25 24 0 234 c0 220 1 236 20 260 l21 26 302 3 c439 4 416 -19 417 436 l0 303 25 24 24 25 221 0 c207 0 221 -1 240 -20z" fill="#111"/>
<path id="button-top" class="face" d="M11150 7144 c-206 -44 -393 -221 -445 -419 -19 -75 -19 -233 0 -305 40 -150 165 -306 296 -368 239 -114 489 -72 675 113 179 177 224 445 112 673 -44 90 -160 208 -247 251 -129 65 -259 84 -391 55z m272 -286 c129 -76 188 -231 144 -380 -34 -116 -147 -210 -273 -224 -122 -15 -264 66 -314 178 -36 81 -34 192 5 276 33 71 85 123 160 158 45 22 62 25 141 22 77 -3 98 -8 137 -30z" fill="#111" filter="url(#blueGlow)"/>
<path id="button-right" class="face" d="M12063 6215 c-221 -39 -421 -232 -469 -457 -76 -356 196 -697 558 -698 95 0 160 16 257 62 163 78 292 246 321 419 68 404 -266 742 -667 674z m242 -288 c65 -33 108 -79 141 -150 24 -53 26 -68 22 -145 -5 -103 -27 -152 -94 -218 -80 -77 -216 -106 -328 -68 -64 22 -147 100 -177 166 -32 73 -32 183 -1 253 25 55 90 128 137 152 95 51 214 55 300 10z" fill="#111" filter="url(#blueGlow)"/>
<path id="button-left" class="face" d="M10230 6191 c-109 -30 -188 -76 -270 -160 -117 -119 -170 -246 -170 -411 0 -167 52 -292 170 -410 119 -121 236 -170 400 -170 158 0 299 59 410 170 237 236 239 601 6 835 -139 138 -357 196 -546 146z m240 -263 c71 -22 149 -88 184 -156 41 -80 39 -207 -4 -292 -25 -48 -91 -115 -137 -138 -59 -30 -138 -45 -191 -37 -59 9 -155 59 -189 99 -83 98 -104 248 -50 358 71 145 231 213 387 166z" fill="#111" filter="url(#blueGlow)"/>
<path id="button-bottom" class="face" d="M11136 5254 c-263 -64 -448 -298 -449 -569 -1 -165 53 -296 172 -414 115 -116 247 -170 411 -171 307 -1 580 274 580 585 0 196 -120 404 -289 505 -122 72 -288 97 -425 64z m258 -273 c60 -26 123 -85 154 -145 24 -45 27 -62 27 -146 0 -83 -3 -101 -27 -145 -60 -115 -163 -179 -285 -179 -286 2 -422 356 -210 551 50 46 74 61 132 80 52 17 152 9 209 -16z" fill="#111" filter="url(#blueGlow)"/>
</g></svg>